<svg xmlns="http://www.w3.org/2000/svg" width="245" height="76" viewBox="0 0 245 76" version="1.1"><path fill="#ffffff" d="M0 0L245 0 245 76 0 76 0 0Z"/><path fill="#213846" d="M13.19 12.14C13.35 9.3 18.35 9.34 18.59 12.11 18.97 16.42 18.64 20.76 18.72 25.08 22.64 22.52 27.38 20.59 32.1 22.05 39.86 23.95 45.1 32.32 43.69 40.15 42.76 47.65 35.7 54.15 28.01 53.71 19.91 53.69 12.85 46.14 13.08 38.1 13.14 29.45 12.9 20.78 13.19 12.14Z"/><path fill="#213846" d="M176.19 31.1C178.47 25.65 183.92 21.25 190 21.37 198.11 20.74 205.56 28.07 205.8 36.04 205.87 40.71 205.86 45.38 205.81 50.05 206.08 51.7 204.75 53.43 203.03 53.32 201.07 53.78 200.39 51.39 199.97 50 195.26 53.46 188.71 54.62 183.48 51.6 176.24 47.91 173.14 38.52 176.19 31.1Z"/><path fill="#213846" d="M209.65 32.93C211.37 27.02 216.62 21.78 222.97 21.39 226.23 21.2 229.93 21.39 232.42 23.79 234.19 26 231.68 29.6 228.99 28.22 224.17 26.25 218.14 28.01 215.98 32.94 213.71 38.92 215.46 45.46 214.61 51.65 213.79 52.4 212.92 53.08 212 53.68 208.08 52.41 209.32 48.12 209.16 44.96 209.31 40.96 208.77 36.88 209.65 32.93Z"/><path fill="#213846" d="M46.52 22.83C47.18 22.47 48.5 21.74 49.16 21.37 50.01 21.99 50.82 22.67 51.59 23.4 52.94 30.45 49.35 39.23 55.16 44.88 59.97 49.78 68.9 46.95 70.58 40.48 71.56 34.64 70.15 28.61 71.52 22.8 72.14 22.48 73.38 21.83 74 21.5 74.64 21.83 75.91 22.49 76.55 22.82 76.81 27.89 76.8 32.97 76.77 38.04 76.98 46.31 69.31 53.83 61.03 53.39 54.21 53.3 48.06 47.94 46.49 41.39 45.88 37.28 46.44 33.1 45.98 28.96 45.67 26.9 45.97 24.83 46.52 22.83Z"/><path fill="#213846" d="M80.48 24.26C80.58 22.86 82.18 22.22 82.93 21.19 83.99 22.07 85.68 22.49 86.13 23.95 86.53 28.65 86.04 33.37 86.31 38.07 86.4 42.38 89.86 46.2 93.96 47.21 99.13 48.3 104.53 44.27 105.23 39.1 105.68 34.18 105.09 29.22 105.47 24.3 105.58 22.94 107.06 22.26 107.78 21.24 109.35 21.93 111.48 22.82 111.22 24.95 111.45 33.96 111.33 42.98 111.32 52 111.34 58.45 107.19 64.76 101.13 67.06 97.2 68.35 92.42 68.49 88.83 66.19 86.33 65 87.27 61.1 89.9 60.76 93.53 61.48 97.88 62.84 101.07 60.2 104.41 57.94 105.68 53.86 105.53 49.98 102.68 51.78 99.52 53.43 96.05 53.36 87.79 53.61 80.31 46.14 80.44 37.91 80.43 33.36 80.23 28.8 80.48 24.26Z"/><path fill="#f50056" d="M119.17 26.14C124.97 19.41 136.71 19.84 142 26.98 146.97 32.48 145.45 40.26 145.7 47.01 145.69 49.28 146.22 52.96 143.05 53.29 140.89 53.89 140.21 51.26 139.36 49.9 133.94 54.78 124.94 54.3 119.89 49.13 113.33 43.36 113.03 32.31 119.17 26.14Z"/><path fill="#213846" d="M154.42 25.36C158.71 21.19 165.78 20.21 171.06 22.98 173.83 24 173.23 28.94 170.04 28.6 166.69 28 162.98 26.63 159.88 28.81 153.41 32.23 153.31 42.7 159.89 46.07 163.74 48.84 168.15 45.74 172.34 46.56 172.55 48.26 173.44 50.56 171.47 51.58 165.79 55.09 157.81 53.49 153.45 48.56 150.53 45.78 149.46 41.8 148.76 37.97 149.24 33.3 150.67 28.48 154.42 25.36Z"/><path fill="#ffffff" d="M127.48 27.7C133.38 25.68 139.98 30.9 139.75 37.01 140.37 43.39 133.14 49.24 127.1 46.63 123.14 45.3 120.43 41.16 120.59 37.02 120.61 32.86 123.61 29.04 127.48 27.7Z"/><path fill="#ffffff" d="M187.54 27.75C194.6 25.18 201.97 32.87 199.71 39.82 198.37 46.49 189.18 49.8 184.25 44.76 178.39 40.13 180.59 29.98 187.54 27.75Z"/><path fill="#ffffff" d="M19.18 35.03C20.49 29.78 26.75 26.07 31.86 28.45 35.76 29.98 37.84 33.97 38.26 37.95 37.7 42.7 34.17 47.66 28.99 47.61 22.52 48.37 17.11 41.03 19.18 35.03Z"/></svg>